<svg width="680" height="680" viewBox="0 0 680 680" xmlns="http://www.w3.org/2000/svg">
<defs>
<linearGradient id="shieldGrad" x1="0%" y1="0%" x2="0%" y2="100%">
<stop offset="0%" stop-color="#FFB347"/>
<stop offset="100%" stop-color="#E8841A"/>
</linearGradient>
</defs>

<rect x="0" y="0" width="680" height="680" fill="#2B0A45"/>

<path d="M 340 130 L 460 172 L 460 300 Q 460 380 340 420 Q 220 380 220 300 L 220 172 Z"
fill="url(#shieldGrad)"/>

<path d="M 340 156 L 440 191 L 440 296 Q 440 363 340 396 Q 240 363 240 296 L 240 191 Z"
fill="#2B0A45"/>

<path d="M 340 156 L 440 191 L 440 296 Q 440 363 340 396 Q 240 363 240 296 L 240 191 Z"
fill="none" stroke="#F39322" stroke-width="1.5" opacity="0.4"/>

<path d="M 285 280 L 322 317 L 395 244"
fill="none" stroke="#F39322" stroke-width="18" stroke-linecap="round" stroke-linejoin="round"/>

<text x="340" y="500" text-anchor="middle"
font-family="Georgia, 'Times New Roman', serif"
font-size="72" font-weight="700" fill="#F39322"
letter-spacing="-1">DeFi Trust</text>

<line x1="220" y1="525" x2="320" y2="525" stroke="#F39322" stroke-width="1" opacity="0.5"/>
<polygon points="340,521 348,525 340,529 332,525" fill="#F39322"/>
<line x1="360" y1="525" x2="460" y2="525" stroke="#F39322" stroke-width="1" opacity="0.5"/>

<text x="340" y="562" text-anchor="middle"
font-family="'Courier New', monospace"
font-size="16" font-weight="500" fill="#F39322"
letter-spacing="5">PUBLIC WEB3 AUDIT</text>

<text x="340" y="590" text-anchor="middle"
font-family="'Courier New', monospace"
font-size="16" font-weight="500" fill="#F39322"
letter-spacing="5">REGISTRY</text>
</svg>
